# xmcd CD database file
#
# Track frame offsets:
#	150
#	25065
#	53982
#	75290
#	104580
#	137732
#	162680
#	195832
#	216905
#	243077
#	267485
#
# Disc length: 4071 seconds
#
# Revision: 0
# Processed by: cddbd v1.4PL0 Copyright (c) Steve Scherf et al.
# Submitted via: CDex 1.50beta10
#
DISCID=930fe50b
DTITLE=Joe Houston - The Blues and Nothin' Else
DYEAR=1996
DGENRE=Blues
TTITLE0=I Wanna Party
TTITLE1=Juice Head Baby
TTITLE2=When Your Left Eye Jump
TTITLE3=How Many More Years
TTITLE4=You've Found Somebody New
TTITLE5=Flip Flop and Fly
TTITLE6=The Red Rooster
TTITLE7=Barefootin'
TTITLE8=Sad and Blue
TTITLE9=Honey and Hush
TTITLE10=Full of Misery
EXTD=YEAR: 1996
EXTT0=
EXTT1=
EXTT2=
EXTT3=
EXTT4=
EXTT5=
EXTT6=
EXTT7=
EXTT8=
EXTT9=
EXTT10=
PLAYORDER=
